<svg width="14" height="14" viewBox="0 0 14 14" fill="none" xmlns="http://www.w3.org/2000/svg">
<path d="M1.57313 3.65885H2.02533L3.08046 12.4717C3.10055 12.6827 3.28143 12.8334 3.49246 12.8334H10.5065C10.7176 12.8334 10.8884 12.6827 10.9185 12.4717L11.9737 3.65885H12.4258C12.657 3.65885 12.8378 3.47797 12.8378 3.24685C12.8378 3.01573 12.657 2.83485 12.4258 2.83485H11.6018H9.27052V1.57875C9.27052 1.34763 9.08964 1.16675 8.85852 1.16675H5.14046C4.90934 1.16675 4.72846 1.34763 4.72846 1.57875V2.83485H2.39714H1.57313C1.34201 2.83485 1.16113 3.01573 1.16113 3.24685C1.16113 3.47797 1.35206 3.65885 1.57313 3.65885ZM5.55246 1.99075H8.44652V2.83485H5.55246V1.99075ZM11.1396 3.65885L10.1448 12.0195H3.85421L2.85938 3.65885H11.1396Z" fill="white"/>
<path d="M5.6327 10.7633C5.86383 10.7633 6.04471 10.5825 6.04471 10.3513V5.41737C6.04471 5.18625 5.86383 5.00537 5.6327 5.00537C5.40158 5.00537 5.2207 5.18625 5.2207 5.41737V10.3513C5.2207 10.5825 5.40158 10.7633 5.6327 10.7633Z" fill="white"/>
<path d="M8.3661 10.7633C8.59723 10.7633 8.7781 10.5825 8.7781 10.3513V5.41737C8.7781 5.18625 8.59723 5.00537 8.3661 5.00537C8.13498 5.00537 7.9541 5.18625 7.9541 5.41737V10.3513C7.9541 10.5825 8.14503 10.7633 8.3661 10.7633Z" fill="white"/>
</svg>
