<svg width="14" height="14" viewBox="0 0 14 14" fill="none" xmlns="http://www.w3.org/2000/svg"><path d="M1.57313 3.65873H2.02533L3.08046 12.4715C3.10055 12.6826 3.28143 12.8333 3.49246 12.8333H10.5065C10.7176 12.8333 10.8884 12.6826 10.9185 12.4715L11.9737 3.65873H12.4258C12.657 3.65873 12.8378 3.47785 12.8378 3.24673C12.8378 3.01561 12.657 2.83473 12.4258 2.83473H11.6018H9.27052V1.57863C9.27052 1.3475 9.08964 1.16663 8.85852 1.16663H5.14046C4.90934 1.16663 4.72846 1.3475 4.72846 1.57863V2.83473H2.39714H1.57313C1.34201 2.83473 1.16113 3.01561 1.16113 3.24673C1.16113 3.47785 1.35206 3.65873 1.57313 3.65873ZM5.55246 1.99063H8.44652V2.83473H5.55246V1.99063ZM11.1396 3.65873L10.1448 12.0193H3.85421L2.85938 3.65873H11.1396Z" fill="#1A1A1A"/><path d="M5.6327 10.7633C5.86383 10.7633 6.04471 10.5825 6.04471 10.3513V5.41737C6.04471 5.18625 5.86383 5.00537 5.6327 5.00537C5.40158 5.00537 5.2207 5.18625 5.2207 5.41737V10.3513C5.2207 10.5825 5.40158 10.7633 5.6327 10.7633Z" fill="#1A1A1A"/><path d="M8.3661 10.7633C8.59723 10.7633 8.7781 10.5825 8.7781 10.3513V5.41737C8.7781 5.18625 8.59723 5.00537 8.3661 5.00537C8.13498 5.00537 7.9541 5.18625 7.9541 5.41737V10.3513C7.9541 10.5825 8.14503 10.7633 8.3661 10.7633Z" fill="#1A1A1A"/></svg>
