<svg width="65" height="65" viewBox="0 0 65 65" fill="none" xmlns="http://www.w3.org/2000/svg">
<path d="M20.5 48.5C22.7091 48.5 24.5 50.2909 24.5 52.5C24.5 54.7091 22.7091 56.5 20.5 56.5C18.2909 56.5 16.5 54.7091 16.5 52.5C16.5 50.2909 18.2909 48.5 20.5 48.5Z" stroke="#999999" stroke-width="4"/>
<path d="M44.5 48.5C46.7091 48.5 48.5 50.2907 48.5 52.5C48.5 54.7091 46.7091 56.5 44.5 56.5C42.2909 56.5 40.5 54.7091 40.5 52.5C40.5 50.2907 42.2909 48.5 44.5 48.5Z" stroke="#999999" stroke-width="4"/>
<path d="M6.49593 6.61279C5.45388 6.24641 4.31214 6.79417 3.9458 7.8362C3.57942 8.87825 4.12718 10.02 5.16921 10.3863L6.49593 6.61279ZM55.5867 26.8536L57.5454 27.2574L57.548 27.2452L55.5867 26.8536ZM15.7208 26.5262V19.2685H11.7208V26.5262H15.7208ZM7.19249 6.85767L6.49593 6.61279L5.16921 10.3863L5.86577 10.6312L7.19249 6.85767ZM29.6659 43.8329H43.807V39.8329H29.6659V43.8329ZM15.7208 19.2685C15.7208 17.3828 15.7235 15.8092 15.5851 14.5304C15.4418 13.2067 15.1314 11.9995 14.3794 10.8991L11.0769 13.1559C11.3176 13.5081 11.5034 13.9919 11.6083 14.9609C11.7181 15.9748 11.7208 17.2953 11.7208 19.2685H15.7208ZM5.86577 10.6312C7.64606 11.2572 8.81606 11.672 9.677 12.0944C10.4856 12.4911 10.842 12.8123 11.0769 13.1559L14.3794 10.8991C13.6216 9.79015 12.614 9.07991 11.439 8.50337C10.3163 7.95249 8.8831 7.45207 7.19249 6.85767L5.86577 10.6312ZM11.7208 26.5262C11.7208 30.3996 11.7571 33.1926 12.1226 35.3265C12.5128 37.6046 13.2918 39.2358 14.7484 40.7721L17.6512 38.0201C16.7974 37.1196 16.3369 36.2377 16.0652 34.6513C15.7688 32.9204 15.7208 30.4969 15.7208 26.5262H11.7208ZM29.6659 39.8329C25.8877 39.8329 23.2662 39.8281 21.2911 39.5481C19.385 39.2777 18.378 38.7865 17.6512 38.0201L14.7484 40.7721C16.3321 42.4425 18.3396 43.1697 20.7295 43.5084C23.0505 43.8377 26.0068 43.8329 29.6659 43.8329V39.8329ZM13.7208 18.8196H46.0694V14.8196H13.7208V18.8196ZM53.6278 26.4498L52.2952 32.9158L56.2128 33.7233L57.5454 27.2574L53.6278 26.4498ZM46.0694 18.8196C48.3531 18.8196 50.363 18.8222 51.9491 18.9995C52.7374 19.0876 53.3272 19.21 53.7416 19.3557C54.172 19.5069 54.2406 19.6229 54.2062 19.5779L57.3766 17.139C56.7499 16.3245 55.8688 15.8634 55.0678 15.5819C54.2504 15.2947 53.3262 15.1285 52.3936 15.0243C50.5382 14.8169 48.279 14.8196 46.0694 14.8196V18.8196ZM57.548 27.2452C57.9992 24.984 58.3824 23.0869 58.4763 21.5672C58.5726 20.004 58.3947 18.4627 57.3766 17.139L54.2062 19.5779C54.3715 19.7931 54.5542 20.1805 54.4838 21.3208C54.4107 22.5047 54.0998 24.0856 53.6254 26.4621L57.548 27.2452ZM43.807 43.8329C45.8382 43.8329 47.5427 43.8364 48.9168 43.6681C50.3454 43.4934 51.6483 43.1113 52.7856 42.1844L50.2587 39.0836C49.9248 39.3556 49.4515 39.5729 48.431 39.698C47.3558 39.8294 45.9384 39.8329 43.807 39.8329V43.8329ZM52.2952 32.9158C51.8648 35.0033 51.5752 36.391 51.2294 37.4174C50.9011 38.3916 50.5926 38.8116 50.2587 39.0836L52.7856 42.1844C53.923 41.2574 54.5603 40.0585 55.02 38.6948C55.4622 37.3828 55.8027 35.7126 56.2128 33.7233L52.2952 32.9158Z" fill="#999999"/>
</svg>
