<svg width="14" height="14" viewBox="0 0 14 14" fill="none" xmlns="http://www.w3.org/2000/svg">
<path class="duplicate-icon" d="M10.5003 3.49996V1.74996C10.5003 1.59525 10.4389 1.44688 10.3295 1.33748C10.2201 1.22808 10.0717 1.16663 9.91699 1.16663H1.75033C1.59562 1.16663 1.44724 1.22808 1.33785 1.33748C1.22845 1.44688 1.16699 1.59525 1.16699 1.74996V9.91663C1.16699 10.0713 1.22845 10.2197 1.33785 10.3291C1.44724 10.4385 1.59562 10.5 1.75033 10.5H3.50033V12.25C3.50033 12.4047 3.56178 12.553 3.67118 12.6624C3.78058 12.7718 3.92895 12.8333 4.08366 12.8333H12.2503C12.405 12.8333 12.5534 12.7718 12.6628 12.6624C12.7722 12.553 12.8337 12.4047 12.8337 12.25V4.08329C12.8337 3.92858 12.7722 3.78021 12.6628 3.67081C12.5534 3.56142 12.405 3.49996 12.2503 3.49996H10.5003ZM2.33366 9.33329V2.33329H9.33366V9.33329H2.33366ZM11.667 11.6666H4.66699V10.5H9.91699C10.0717 10.5 10.2201 10.4385 10.3295 10.3291C10.4389 10.2197 10.5003 10.0713 10.5003 9.91663V4.66663H11.667V11.6666Z" fill="#1A1A1A"/>
</svg>
