<svg version="1.2" xmlns="http://www.w3.org/2000/svg" viewBox="0 0 200 144" width="200" height="144">
	<title>8665019_check_mark_icon-svg</title>
	<style>
		.s0 { fill: #66de93;stroke: #1cc95d;paint-order:stroke fill markers;stroke-linejoin: round;stroke-width: 2 } 
	</style>
	<path id="Layer" class="s0" d="m198.7 15.5c0 3.6-1.4 7.2-4.2 10l-112.7 113c-2.8 2.8-6.4 4.2-10 4.2-3.6 0-7.2-1.4-10-4.2l-56.3-56.5c-2.8-2.8-4.2-6.4-4.2-10 0-8.1 6.6-14.1 14.1-14.1 3.6 0 7.2 1.3 10 4.1l46.4 46.6 102.8-103.1c2.8-2.8 6.4-4.2 10-4.2 7.5 0 14.1 6.1 14.1 14.2z"/>
</svg>