<svg width="16" height="16" viewBox="0 0 16 16" fill="none" xmlns="http://www.w3.org/2000/svg">
<g clip-path="url(#clip0_2744_3844)">
<path fill-rule="evenodd" clip-rule="evenodd" d="M7.99967 0.833374C8.14561 0.833374 8.28434 0.897154 8.37927 1.00798L10.3793 3.34131C10.559 3.55097 10.5347 3.86663 10.3251 4.04633C10.1154 4.22605 9.79974 4.20177 9.62007 3.9921L8.49967 2.685V10C8.49967 10.2762 8.27581 10.5 7.99967 10.5C7.72354 10.5 7.49967 10.2762 7.49967 10V2.685L6.3793 3.9921C6.19959 4.20177 5.88394 4.22605 5.67428 4.04633C5.46461 3.86663 5.44033 3.55097 5.62005 3.34131L7.62007 1.00798C7.71501 0.897154 7.85374 0.833374 7.99967 0.833374ZM4.66356 5.50135C4.93969 5.49981 5.16479 5.72242 5.16633 5.99856C5.16787 6.27469 4.94526 6.49979 4.66913 6.50133C3.94013 6.50539 3.42341 6.52432 3.03124 6.59636C2.65337 6.66577 2.43465 6.77724 2.27235 6.93951C2.08784 7.12404 1.96754 7.38311 1.90177 7.87224C1.83407 8.37584 1.83301 9.04324 1.83301 10.0002V10.6668C1.83301 11.6238 1.83407 12.2912 1.90177 12.7948C1.96754 13.284 2.08784 13.543 2.27235 13.7275C2.45685 13.912 2.7159 14.0323 3.20509 14.0981C3.70865 14.1658 4.37606 14.1668 5.33301 14.1668H10.6663C11.6233 14.1668 12.2907 14.1658 12.7943 14.0981C13.2835 14.0323 13.5425 13.912 13.727 13.7275C13.9115 13.543 14.0318 13.284 14.0976 12.7948C14.1653 12.2912 14.1663 11.6238 14.1663 10.6668V10.0002C14.1663 9.04324 14.1653 8.37584 14.0976 7.87224C14.0318 7.38311 13.9115 7.12404 13.727 6.93951C13.5647 6.77724 13.346 6.66577 12.9681 6.59636C12.5759 6.52432 12.0592 6.50539 11.3302 6.50133C11.0541 6.49979 10.8315 6.27469 10.833 5.99856C10.8345 5.72242 11.0597 5.49981 11.3358 5.50135C12.0568 5.50536 12.6577 5.52262 13.1487 5.61281C13.6541 5.70563 14.0841 5.88246 14.4341 6.23241C14.8354 6.63369 15.008 7.13897 15.0887 7.73904C15.1663 8.31697 15.1663 9.05191 15.1663 9.96357V10.7034C15.1663 11.6152 15.1663 12.35 15.0887 12.928C15.008 13.5281 14.8354 14.0333 14.4341 14.4346C14.0328 14.8359 13.5276 15.0085 12.9275 15.0892C12.3495 15.1669 11.6147 15.1668 10.7029 15.1668H5.29643C4.3847 15.1668 3.64982 15.1669 3.07184 15.0892C2.47177 15.0085 1.96652 14.8359 1.56524 14.4346C1.16396 14.0333 0.991368 13.5281 0.910688 12.928C0.832982 12.35 0.832995 11.6152 0.833008 10.7034V9.96357C0.832995 9.05184 0.832982 8.31697 0.910688 7.73904C0.991368 7.13897 1.16396 6.63369 1.56524 6.23241C1.91519 5.88246 2.34524 5.70563 2.85057 5.61281C3.34161 5.52261 3.94254 5.50536 4.66356 5.50135Z" fill="#1A1A1A"/>
</g>
<defs><clipPath id="clip0_2744_3844"><rect width="16" height="16" fill="white"/></clipPath></defs>
</svg>
